 <svg  version="1.0" xmlns="http://www.w3.org/2000/svg"  width="259.000000pt" height="294.000000pt" viewBox="0 0 259.000000 294.000000"  preserveAspectRatio="xMidYMid meet">  <g transform="translate(0.000000,294.000000) scale(0.100000,-0.100000)" fill="#ffffff" stroke="none"> <path d="M632 2606 c-73 -18 -188 -77 -244 -126 -62 -54 -142 -175 -170 -258 -22 -65 -23 -81 -26 -515 -3 -431 -2 -450 18 -526 44 -161 154 -297 301 -371 45 -22 99 -43 120 -46 22 -4 39 -7 39 -8 0 0 -20 -91 -45 -201 -38 -168 -43 -205 -34 -233 13 -39 58 -66 98 -57 18 4 122 93 287 245 l259 239 370 1 c301 0 382 3 430 15 165 43 310 163 383 315 22 47 45 112 51 144 7 36 11 222 11 470 0 456 -3 483 -64 604 -71 141 -178 236 -326 290 l-75 27 -665 2 c-516 1 -677 -1 -718 -11z m1380 -37 c149 -31 302 -148 366 -279 62 -127 63 -142 60 -632 -2 -264 -7 -449 -13 -458 -5 -8 -11 -24 -13 -35 -1 -11 -17 -49 -35 -84 -42 -85 -144 -186 -228 -228 -126 -63 -117 -62 -649 -67 -263 -2 -287 -5 -322 -38 -7 -7 -98 -92 -203 -188 -104 -96 -208 -192 -230 -212 -29 -28 -49 -38 -73 -38 -55 0 -56 23 -11 230 21 101 39 191 39 200 0 26 -39 55 -110 80 -131 46 -243 145 -301 268 -58 121 -58 127 -59 602 0 417 0 438 21 500 62 190 200 326 381 374 43 12 172 15 690 15 426 1 655 -3 690 -10z"/> <path d="M673 2545 c-183 -40 -321 -161 -392 -343 l-26 -67 -2 -425 c-3 -404 -2 -429 18 -500 28 -105 78 -187 151 -255 65 -60 169 -116 243 -129 56 -11 75 -23 75 -49 0 -12 -13 -87 -30 -167 -16 -80 -30 -157 -30 -171 0 -33 23 -53 52 -45 13 3 106 82 208 177 102 94 203 186 226 205 l41 34 389 3 c407 4 405 4 514 50 66 28 157 104 203 169 46 66 92 181 101 258 8 59 7 753 -1 805 -10 69 -51 177 -89 232 -74 107 -172 176 -303 212 -70 20 -99 20 -680 20 -472 0 -620 -3 -668 -14z m1318 -39 c198 -42 345 -196 379 -395 8 -46 10 -197 8 -467 -4 -383 -5 -401 -26 -458 -12 -33 -33 -78 -47 -101 -34 -58 -139 -154 -201 -182 -103 -47 -162 -53 -552 -53 l-363 0 -47 -43 c-26 -24 -134 -123 -239 -221 -106 -97 -193 -174 -193 -169 0 4 18 91 39 193 45 212 44 224 -21 239 -158 38 -259 94 -326 178 -43 54 -89 155 -102 222 -6 31 -10 217 -10 435 0 429 5 470 66 586 61 116 162 195 295 230 69 18 113 19 674 19 478 1 613 -2 666 -13z"/> <path d="M671 2081 c-26 -26 -27 -72 -2 -95 12 -11 58 -24 123 -34 l103 -17 -3 -34 c-7 -68 38 -121 103 -121 57 0 104 45 105 98 0 27 3 32 18 28 104 -30 162 -12 162 53 0 22 -6 44 -15 51 -8 7 -86 20 -172 30 -87 10 -198 26 -248 35 -49 9 -104 19 -121 22 -24 4 -37 0 -53 -16z m174 -46 c49 -8 150 -22 223 -30 160 -18 196 -32 158 -64 -9 -7 -33 -9 -68 -5 -51 6 -56 5 -76 -21 -12 -15 -22 -34 -22 -41 0 -22 -38 -54 -63 -54 -34 0 -67 35 -67 73 -1 58 -29 79 -135 96 -38 7 -79 19 -90 27 -20 15 -20 15 -1 30 11 8 27 12 35 9 9 -2 56 -11 106 -20z"/> <path d="M1929 2096 c-8 -8 -240 -44 -364 -57 -142 -13 -173 -23 -181 -55 -18 -71 22 -98 128 -84 40 5 76 10 81 10 4 0 7 -9 7 -20 0 -29 26 -76 52 -94 37 -26 93 -20 130 13 29 26 33 35 33 80 l0 50 65 11 c103 17 127 27 140 61 11 27 10 34 -7 57 -18 24 -70 42 -84 28z m48 -52 c9 -24 -18 -40 -90 -54 -80 -15 -97 -29 -108 -86 -11 -57 -33 -84 -69 -84 -31 0 -46 15 -75 74 l-20 41 -87 0 c-91 1 -124 13 -100 37 11 11 69 21 200 34 35 4 121 17 190 29 162 28 152 28 159 9z"/> <path d="M1953 1853 c-7 -3 -13 -14 -13 -26 0 -32 -40 -92 -80 -122 -116 -86 -300 -45 -359 79 -11 26 -27 46 -35 46 -48 0 -6 -105 62 -157 157 -120 402 -55 454 120 9 31 9 40 -3 51 -8 8 -20 12 -26 9z"/> <path d="M697 1843 c-13 -12 -7 -54 12 -91 72 -139 275 -183 416 -90 74 49 122 157 74 166 -11 2 -19 -6 -24 -25 -19 -78 -117 -143 -214 -143 -98 0 -201 66 -217 138 -3 15 -7 33 -10 40 -4 13 -26 16 -37 5z"/> <path d="M1162 1440 c-139 -37 -309 -151 -342 -230 -15 -37 -1 -79 27 -81 37 -3 50 5 115 67 101 98 221 144 373 144 146 0 304 -60 393 -149 62 -62 86 -75 112 -61 57 31 44 76 -48 161 -155 144 -414 205 -630 149z m388 -51 c86 -30 144 -62 208 -116 59 -51 79 -80 64 -95 -7 -7 -26 4 -59 35 -232 216 -604 222 -827 13 -55 -51 -76 -61 -76 -34 0 23 53 80 112 119 85 56 110 68 191 90 100 27 293 21 387 -12z"/> </g> </svg> 